<svg xmlns="http://www.w3.org/2000/svg" style="display: none;">
  // All Task icon
  <symbol id="allTasksIcon" viewBox="0 0 14 12">
    <path d="M10.96 5.10001H5.74001C5.24321 5.10001 5.20001 5.50231 5.20001 6.00001C5.20001 6.49771 5.24321 6.90001 5.74001 6.90001H10.96C11.4568 6.90001 11.5 6.49771 11.5 6.00001C11.5 5.50231 11.4568 5.10001 10.96 5.10001ZM12.76 9.60001H5.74001C5.24321 9.60001 5.20001 10.0023 5.20001 10.5C5.20001 10.9977 5.24321 11.4 5.74001 11.4H12.76C13.2568 11.4 13.3 10.9977 13.3 10.5C13.3 10.0023 13.2568 9.60001 12.76 9.60001ZM5.74001 2.40001H12.76C13.2568 2.40001 13.3 1.99771 13.3 1.50001C13.3 1.00231 13.2568 0.600006 12.76 0.600006H5.74001C5.24321 0.600006 5.20001 1.00231 5.20001 1.50001C5.20001 1.99771 5.24321 2.40001 5.74001 2.40001ZM2.86001 5.10001H1.24001C0.743212 5.10001 0.700012 5.50231 0.700012 6.00001C0.700012 6.49771 0.743212 6.90001 1.24001 6.90001H2.86001C3.35681 6.90001 3.40001 6.49771 3.40001 6.00001C3.40001 5.50231 3.35681 5.10001 2.86001 5.10001ZM2.86001 9.60001H1.24001C0.743212 9.60001 0.700012 10.0023 0.700012 10.5C0.700012 10.9977 0.743212 11.4 1.24001 11.4H2.86001C3.35681 11.4 3.40001 10.9977 3.40001 10.5C3.40001 10.0023 3.35681 9.60001 2.86001 9.60001ZM2.86001 0.600006H1.24001C0.743212 0.600006 0.700012 1.00231 0.700012 1.50001C0.700012 1.99771 0.743212 2.40001 1.24001 2.40001H2.86001C3.35681 2.40001 3.40001 1.99771 3.40001 1.50001C3.40001 1.00231 3.35681 0.600006 2.86001 0.600006Z" fill="#7C7C7C"/>
  </symbol>

  // Plus icon
  <symbol id="plusIcon" viewBox="0 0 12 12">
    <path d="M6 1V11" stroke="currentColor" stroke-width="1.5" stroke-linecap="round" stroke-linejoin="round"/>
    <path d="M1 6H11" stroke="currentColor" stroke-width="1.5" stroke-linecap="round" stroke-linejoin="round"/>
  </symbol>

  // Close icon
  <symbol id="closeIcon" viewBox="0 0 21 21">
    <path d="M10.315 0C4.62737 0 0 4.62737 0 10.315C0 16.0026 4.62737 20.63 10.315 20.63C16.0026 20.63 20.63 16.0026 20.63 10.315C20.63 4.62737 16.0026 0 10.315 0ZM14.0497 12.928C14.1265 13.0009 14.1879 13.0885 14.2303 13.1855C14.2727 13.2826 14.2952 13.3872 14.2966 13.4931C14.298 13.599 14.2781 13.7041 14.2382 13.8022C14.1983 13.9003 14.1392 13.9894 14.0643 14.0643C13.9894 14.1392 13.9003 14.1983 13.8022 14.2382C13.7041 14.2781 13.599 14.298 13.4931 14.2966C13.3872 14.2952 13.2826 14.2727 13.1855 14.2303C13.0885 14.1879 13.0009 14.1265 12.928 14.0497L10.315 11.4373L7.70203 14.0497C7.55202 14.1922 7.35226 14.2705 7.14536 14.2679C6.93846 14.2652 6.74077 14.1819 6.59446 14.0355C6.44814 13.8892 6.36477 13.6915 6.36212 13.4846C6.35947 13.2777 6.43775 13.078 6.58028 12.928L9.19275 10.315L6.58028 7.70203C6.43775 7.55202 6.35947 7.35226 6.36212 7.14536C6.36477 6.93846 6.44814 6.74077 6.59446 6.59446C6.74077 6.44814 6.93846 6.36477 7.14536 6.36212C7.35226 6.35947 7.55202 6.43775 7.70203 6.58028L10.315 9.19275L12.928 6.58028C13.078 6.43775 13.2777 6.35947 13.4846 6.36212C13.6915 6.36477 13.8892 6.44814 14.0355 6.59446C14.1819 6.74077 14.2652 6.93846 14.2679 7.14536C14.2705 7.35226 14.1922 7.55202 14.0497 7.70203L11.4373 10.315L14.0497 12.928Z" fill="currentColor"/>
  </symbol>

  // Validation error icon
  <symbol id="validationErrorIcon" viewBox="0 0 24 24">
    <circle cx="12" cy="12" r="10" stroke="red" stroke-width="2" fill="none"/>
    <line x1="12" y1="8" x2="12" y2="14" stroke="red" stroke-width="2"/>
    <line x1="12" y1="16" x2="12" y2="18" stroke="red" stroke-width="2"/>
  </symbol>

  // Validation success icon
  <symbol id="validationSuccessIcon" viewBox="0 0 20 20">
    <path fill-rule="evenodd" d="M10 18a8 8 0 100-16 8 8 0 000 16zm3.857-9.809a.75.75 0 00-1.214-.882l-3.483 4.79-1.88-1.88a.75.75 0 10-1.06 1.061l2.5 2.5a.75.75 0 001.137-.089l4-5.5z" clip-rule="evenodd"></path>
  </symbol>

  // Remove icon (cross)
  <symbol id="removeIcon" viewBox="0 0 10 10">
    <path d="M6.24741 5L9.73899 1.50842C9.9047 1.343 9.99791 1.11853 9.99812 0.884393C9.99832 0.650251 9.90551 0.425617 9.74009 0.259907C9.57468 0.0941973 9.35021 0.000986589 9.11606 0.000779811C8.88192 0.000573033 8.65729 0.0933872 8.49158 0.258804L5 3.75038L1.50842 0.258804C1.34271 0.0930948 1.11796 0 0.883613 0C0.649264 0 0.424514 0.0930948 0.258804 0.258804C0.0930948 0.424514 0 0.649264 0 0.883613C0 1.11796 0.0930948 1.34271 0.258804 1.50842L3.75038 5L0.258804 8.49158C0.0930948 8.65729 0 8.88204 0 9.11639C0 9.35074 0.0930948 9.57549 0.258804 9.7412C0.424514 9.90691 0.649264 10 0.883613 10C1.11796 10 1.34271 9.90691 1.50842 9.7412L5 6.24962L8.49158 9.7412C8.65729 9.90691 8.88204 10 9.11639 10C9.35074 10 9.57549 9.90691 9.7412 9.7412C9.90691 9.57549 10 9.35074 10 9.11639C10 8.88204 9.90691 8.65729 9.7412 8.49158L6.24741 5Z" fill="currentColor"/>
  </symbol>
</svg>
